<?xml version="1.0" encoding="utf-8"?>
<!-- Generator: Adobe Illustrator 16.0.0, SVG Export Plug-In . SVG Version: 6.00 Build 0)  -->
<!DOCTYPE svg PUBLIC "-//W3C//DTD SVG 1.1//EN" "http://www.w3.org/Graphics/SVG/1.1/DTD/svg11.dtd">
<svg version="1.1" id="Layer_1" xmlns="http://www.w3.org/2000/svg" xmlns:xlink="http://www.w3.org/1999/xlink" x="0px" y="0px"
	 width="800.309px" height="651.466px" viewBox="0 0 800.309 651.466" enable-background="new 0 0 800.309 651.466"
	 xml:space="preserve">
<g>
	<path d="M25.036,602.083v-1.034c0.049-4.096,0.049-7.244-2.759-10.151c-2.761-2.864-7.342-3.257-11.434-3.257H0
		c1.034,2.516,1.182,3.895,1.182,6.703v49.291c0,2.805-0.148,4.187-1.182,6.646h10.055c-0.988-2.46-1.184-3.842-1.184-6.646v-15.777
		h1.085c0.248,0,0.64,0.052,1.182,0.052c0.592,0.048,1.378,0.048,2.216,0.048c3.107,0,5.373-0.491,6.801-1.379
		c4.979-3.252,4.929-7.593,4.88-13.06V602.083z M17.347,617.215c0,2.313-0.344,4.725-4.09,4.725H8.871v-28.187h4.387
		c3.746,0,4.09,2.412,4.09,4.729V617.215z"/>
	<path d="M105.077,642.15v-15.523c0.049-3.153,0.049-4.781-2.514-8.278l-0.491-0.693l0.59-0.638
		c1.872-2.119,2.415-3.498,2.415-5.819v-11.336c0.049-4.136,0.049-6.651-2.514-9.36c-2.761-2.959-7.936-2.86-11.285-2.813
		l-1.133,0.048l-0.495-0.048h-9.609c1.034,2.468,1.183,3.799,1.183,6.655v49.239c0,2.809-0.149,4.187-1.183,6.698h10.055
		c-0.988-2.46-1.187-3.89-1.187-6.698v-23.465h1.087c5.963,0,7.342,0.594,7.342,6.163v24h8.972
		c-1.087-2.903-1.135-4.036-1.184-6.302C105.126,643.429,105.126,642.89,105.077,642.15 M97.339,609.768
		c0,4.44-3.056,4.44-7.342,4.44H88.91v-20.7h1.826h1.034c1.331,0,5.569,0,5.569,4.432V609.768z"/>
	<path d="M181.325,589.02c-1.826-1.478-5.028-2.365-8.677-2.365c-3.549,0-6.751,0.888-8.575,2.365
		c-2.514,2.171-3.352,4.242-3.352,7.934v43.917c0,4.242,1.133,6.111,3.352,8.084c1.824,1.427,4.977,2.266,8.575,2.266
		c3.648,0,6.851-0.839,8.677-2.266c2.462-2.171,3.25-4.092,3.25-8.084v-43.917C184.575,593.064,183.787,591.143,181.325,589.02
		 M176.889,639.983c0,4.687-2.958,5.178-4.339,5.178c-2.512,0-4.09-1.977-4.09-5.178v-41.991c0-2.416,1.133-5.225,4.09-5.225
		c2.812,0,4.339,1.921,4.339,5.225V639.983z"/>
	<path d="M251.706,587.641h-12.471c0.988,2.516,1.135,3.847,1.135,6.754v49.24c0,2.805-0.146,4.135-1.135,6.6h8.773
		c5.766,0,9.758-0.198,12.715-3.201c2.367-2.317,3.549-5.918,3.549-10.794v-36.822C264.272,590.006,261.808,587.641,251.706,587.641
		 M256.534,639.638c0,2.266-0.295,4.687-4.09,4.687h-4.339v-50.571h4.339c3.795,0,4.09,2.412,4.09,4.729V639.638z"/>
	<path d="M336.724,594.542v45.441c0,4.144-2.121,4.979-3.993,4.979c-2.365,0-3.894-1.973-3.894-4.979v-45.441
		c0-2.855,0.146-4.234,1.279-6.9h-10.745c1.088,2.666,1.236,4.045,1.236,6.9v46.376c0,4.342,1.18,6.164,3.448,8.231
		c1.873,1.478,5.125,2.317,8.773,2.317s6.849-0.84,8.625-2.317c2.66-2.266,3.498-4.234,3.498-8.231v-46.376
		c0-2.855,0.148-4.234,1.182-6.9H335.44C336.575,590.307,336.724,591.686,336.724,594.542"/>
	<path d="M416.225,626.825c0.59,2.662,0.59,5.271,0.59,10.203v2.955c0,3.398-1.481,5.225-4.389,5.225
		c-2.516,0-4.04-2.023-4.04-5.225v-41.991c0-3.204,1.576-5.225,4.04-5.225c2.761,0,4.389,1.921,4.389,5.225v3.304
		c0,2.167-0.297,4.682-0.642,6.604h8.723c-0.492-2.167-0.492-3.597-0.492-5.617v-5.328c0-3.842-0.787-5.857-3.299-7.985
		c-1.778-1.478-4.979-2.364-8.58-2.364c-3.549,0-6.801,0.887-8.627,2.416c-2.167,1.878-3.3,3.699-3.3,7.934v43.917
		c0,4.29,1.133,6.064,3.352,8.084c1.774,1.478,5.026,2.313,8.575,2.313c3.601,0,6.854-0.836,8.58-2.313
		c2.266-1.921,3.299-3.747,3.299-8.084v-6.453c0-3.109,0-5.276,0.492-7.593H416.225z"/>
	<path d="M475.315,594.296c1.727-0.788,3.498-0.788,6.754-0.788h0.986v50.075c0,2.856-0.15,4.238-1.086,6.75h10.006
		c-0.986-2.563-1.133-3.894-1.133-6.75v-50.075h1.086c3.2,0,5.026,0,6.749,0.788v-6.655h-23.362V594.296z"/>
	<path d="M563.979,587.641h-10.006c0.939,2.516,1.09,3.895,1.09,6.703v49.291c0,2.805-0.15,4.135-1.09,6.646h10.006
		c-1.033-2.512-1.18-3.842-1.18-6.646v-49.291C562.8,591.488,562.946,590.11,563.979,587.641"/>
	<path d="M641.656,589.02c-1.728-1.478-4.976-2.416-8.575-2.416c-3.498,0-6.75,0.938-8.624,2.416
		c-2.464,2.171-3.252,4.242-3.252,7.985v43.912c0,4.195,1.081,6.064,3.3,8.037c1.826,1.427,5.078,2.266,8.576,2.266
		c3.6,0,6.848-0.839,8.627-2.266c2.563-2.171,3.252-4.092,3.252-8.037v-43.912C644.96,593.017,644.271,591.143,641.656,589.02
		 M637.319,639.983c0,4.687-3.007,5.178-4.338,5.178c-2.512,0-4.092-1.977-4.092-5.178v-41.991c0-2.416,1.09-5.225,4.092-5.225
		c2.813,0,4.338,1.921,4.338,5.225V639.983z"/>
	<path d="M724.114,594.296c0-2.856,0.146-4.14,1.133-6.655h-9.067c1.034,2.413,1.181,3.799,1.181,6.655v40.66l-13.008-47.315h-8.973
		c1.034,2.516,1.133,3.799,1.133,6.655v49.339c0,2.855-0.099,4.187-1.133,6.646h9.067c-0.935-2.412-1.185-3.842-1.185-6.646v-40.712
		l13.606,47.41l8.378-0.052c-0.986-2.46-1.133-3.791-1.133-6.646V594.296z"/>
	<path d="M794.05,617.655l-3.105-3.843c-0.49-0.59-0.935-1.133-1.43-1.671c-2.218-2.766-3.252-4.096-3.252-7.201v-8.378
		c0-2.266,1.133-3.743,3.055-3.743c1.825,0,3.256,1.676,3.256,3.743v1.969c0,3.011,0.047,4.242-0.444,6.361h7.935
		c-0.495-2.167-0.495-3.695-0.495-5.672v-1.525c0-2.757,0.052-5.122-1.133-7.142c-1.577-2.618-4.239-3.898-8.228-3.898
		c-0.74,0-1.434,0.048-2.071,0.1c-3.597,0.293-9.614,2.658-9.614,9.463v9.76c0,5.367,1.383,6.952,5.276,11.531l0.1,0.197
		c0.491,0.543,0.986,1.232,1.528,1.822l3.102,3.847c3.304,3.941,4.045,4.828,4.045,8.821v9.363c0,2.271-1.232,3.748-3.105,3.748
		c-1.926,0-3.205-1.624-3.205-3.748v-2.119c0-3.102-0.047-4.876,0.396-7.197h-7.985c0.542,2.421,0.542,4.536,0.542,6.707v2.067
		c-0.103,3.058-0.15,5.965,3.398,8.382c1.529,1.228,4.045,1.869,6.802,1.869c1.528,0,3.105-0.146,4.14-0.543
		c1.977-0.788,6.753-2.955,6.753-7.641v-12.318c0-5.665-0.59-6.307-4.238-10.597C795.433,619.331,794.787,618.593,794.05,617.655"/>
	<rect x="471.029" y="376.402" width="43.865" height="156.728"/>
	<path d="M312.474,237.214h-21.883v105.424h21.883c18.582,0,20.061-11.63,20.061-23.557v-58.305
		C332.535,248.899,331.056,237.214,312.474,237.214"/>
	<path d="M312.474,376.501h-21.883V502.13h21.883c18.582,0,20.061-11.634,20.061-23.608v-78.365
		C332.535,388.182,331.056,376.501,312.474,376.501"/>
	<path d="M717.954,204.143l-60.869-137.11H479.847L401.386,0l-77.577,67.033H146.626l-60.868,137.11h25.531
		c5.175,13.656,4.286,20.061,4.286,35.244V500.11c0,14.537,0.739,23.854-3.696,32.972h129.622
		c4.831-12.37,5.619-19.567,5.619-33.958V238.894c0-15.282-0.838-22.325-6.506-36.426h73.587c48.597,0,61.852,10.303,61.852,47.812
		v50.957c0.148,23.761,0.246,33.566-20.108,52.833l-3.646,3.406l3.941,3.054c19.862,15.77,19.862,25.822,19.813,47.957v79.253
		c0,27.945-6.948,40.66-30.262,45.342h76.541c3.795-11.534,5.276-16.509,5.276-29.771V242.047c0-14.882-1.778-22.128-6.607-34.45
		l-2.907-5.276h60.969l-2.071,5.326c-5.074,12.222-5.962,19.469-5.962,34.4v100.591h43.865V242.047
		c0-14.882-0.052-22.079-4.932-34.45l-1.081-5.276h56.037l-1.43,5.276c-4.829,12.321-5.174,19.568-5.174,34.45v261.264
		c0,13.313,0.345,18.236,3.842,29.771h129.622c-4.437-9.118-3.747-18.435-3.747-32.972V239.387c0-15.183-0.784-21.539,4.389-35.244
		H717.954z"/>
</g>
</svg>
